<?xml version="1.0" encoding="utf-8" standalone="no"?>
<!DOCTYPE svg PUBLIC "-//W3C//DTD SVG 1.1//EN"
  "http://www.w3.org/Graphics/SVG/1.1/DTD/svg11.dtd">
<svg xmlns:xlink="http://www.w3.org/1999/xlink" width="953.22125pt" height="603.648pt" viewBox="0 0 953.22125 603.648" xmlns="http://www.w3.org/2000/svg" version="1.1">
 <metadata>
  <rdf:RDF xmlns:dc="http://purl.org/dc/elements/1.1/" xmlns:cc="http://creativecommons.org/ns#" xmlns:rdf="http://www.w3.org/1999/02/22-rdf-syntax-ns#">
   <cc:Work>
    <dc:type rdf:resource="http://purl.org/dc/dcmitype/StillImage"/>
    <dc:date>2026-06-29T16:21:18.467710</dc:date>
    <dc:format>image/svg+xml</dc:format>
    <dc:creator>
     <cc:Agent>
      <dc:title>Matplotlib v3.10.7, https://matplotlib.org/</dc:title>
     </cc:Agent>
    </dc:creator>
   </cc:Work>
  </rdf:RDF>
 </metadata>
 <defs>
  <style type="text/css">*{stroke-linejoin: round; stroke-linecap: butt}</style>
 </defs>
 <g id="figure_1">
  <g id="patch_1">
   <path d="M 0 603.648 
L 953.22125 603.648 
L 953.22125 0 
L 0 0 
z
" style="fill: #ffffff"/>
  </g>
  <g id="axes_1">
   <g id="patch_2">
    <path d="M 48.90125 457.056 
L 946.02125 457.056 
L 946.02125 121.248 
L 48.90125 121.248 
z
" style="fill: #ffffff"/>
   </g>
   <g id="matplotlib.axis_1">
    <g id="xtick_1">
     <g id="line2d_1">
      <path d="M 89.679432 457.056 
L 89.679432 121.248 
" clip-path="url(#pea549cb230)" style="fill: none; stroke: #b0b0b0; stroke-opacity: 0.25; stroke-width: 0.8; stroke-linecap: square"/>
     </g>
     <g id="line2d_2">
      <defs>
       <path id="m70b7ea70eb" d="M 0 0 
L 0 3.5 
" style="stroke: #000000; stroke-width: 0.8"/>
      </defs>
      <g>
       <use xlink:href="#m70b7ea70eb" x="89.679432" y="457.056" style="stroke: #000000; stroke-width: 0.8"/>
      </g>
     </g>
     <g id="text_1">
      <text style="font-size: 10px; font-family: 'DejaVu Sans'; text-anchor: middle" x="89.679432" y="471.654437" transform="rotate(-0 89.679432 471.654437)">100</text>
     </g>
    </g>
    <g id="xtick_2">
     <g id="line2d_3">
      <path d="M 122.631498 457.056 
L 122.631498 121.248 
" clip-path="url(#pea549cb230)" style="fill: none; stroke: #b0b0b0; stroke-opacity: 0.25; stroke-width: 0.8; stroke-linecap: square"/>
     </g>
     <g id="line2d_4">
      <g>
       <use xlink:href="#m70b7ea70eb" x="122.631498" y="457.056" style="stroke: #000000; stroke-width: 0.8"/>
      </g>
     </g>
     <g id="text_2">
      <text style="font-size: 10px; font-family: 'DejaVu Sans'; text-anchor: middle" x="122.631498" y="471.654437" transform="rotate(-0 122.631498 471.654437)">500</text>
     </g>
    </g>
    <g id="xtick_3">
     <g id="line2d_5">
      <path d="M 163.821581 457.056 
L 163.821581 121.248 
" clip-path="url(#pea549cb230)" style="fill: none; stroke: #b0b0b0; stroke-opacity: 0.25; stroke-width: 0.8; stroke-linecap: square"/>
     </g>
     <g id="line2d_6">
      <g>
       <use xlink:href="#m70b7ea70eb" x="163.821581" y="457.056" style="stroke: #000000; stroke-width: 0.8"/>
      </g>
     </g>
     <g id="text_3">
      <text style="font-size: 10px; font-family: 'DejaVu Sans'; text-anchor: middle" x="163.821581" y="471.654437" transform="rotate(-0 163.821581 471.654437)">1000</text>
     </g>
    </g>
    <g id="xtick_4">
     <g id="line2d_7">
      <path d="M 287.391829 457.056 
L 287.391829 121.248 
" clip-path="url(#pea549cb230)" style="fill: none; stroke: #b0b0b0; stroke-opacity: 0.25; stroke-width: 0.8; stroke-linecap: square"/>
     </g>
     <g id="line2d_8">
      <g>
       <use xlink:href="#m70b7ea70eb" x="287.391829" y="457.056" style="stroke: #000000; stroke-width: 0.8"/>
      </g>
     </g>
     <g id="text_4">
      <text style="font-size: 10px; font-family: 'DejaVu Sans'; text-anchor: middle" x="287.391829" y="471.654437" transform="rotate(-0 287.391829 471.654437)">2500</text>
     </g>
    </g>
    <g id="xtick_5">
     <g id="line2d_9">
      <path d="M 493.342242 457.056 
L 493.342242 121.248 
" clip-path="url(#pea549cb230)" style="fill: none; stroke: #b0b0b0; stroke-opacity: 0.25; stroke-width: 0.8; stroke-linecap: square"/>
     </g>
     <g id="line2d_10">
      <g>
       <use xlink:href="#m70b7ea70eb" x="493.342242" y="457.056" style="stroke: #000000; stroke-width: 0.8"/>
      </g>
     </g>
     <g id="text_5">
      <text style="font-size: 10px; font-family: 'DejaVu Sans'; text-anchor: middle" x="493.342242" y="471.654437" transform="rotate(-0 493.342242 471.654437)">5000</text>
     </g>
    </g>
    <g id="xtick_6">
     <g id="line2d_11">
      <path d="M 905.243068 457.056 
L 905.243068 121.248 
" clip-path="url(#pea549cb230)" style="fill: none; stroke: #b0b0b0; stroke-opacity: 0.25; stroke-width: 0.8; stroke-linecap: square"/>
     </g>
     <g id="line2d_12">
      <g>
       <use xlink:href="#m70b7ea70eb" x="905.243068" y="457.056" style="stroke: #000000; stroke-width: 0.8"/>
      </g>
     </g>
     <g id="text_6">
      <text style="font-size: 10px; font-family: 'DejaVu Sans'; text-anchor: middle" x="905.243068" y="471.654437" transform="rotate(-0 905.243068 471.654437)">10000</text>
     </g>
    </g>
    <g id="text_7">
     <text style="font-size: 12px; font-family: 'DejaVu Sans'; text-anchor: middle" x="497.46125" y="486.85225" transform="rotate(-0 497.46125 486.85225)">Number of balls</text>
    </g>
   </g>
   <g id="matplotlib.axis_2">
    <g id="ytick_1">
     <g id="line2d_13">
      <path d="M 48.90125 402.816261 
L 946.02125 402.816261 
" clip-path="url(#pea549cb230)" style="fill: none; stroke: #b0b0b0; stroke-opacity: 0.25; stroke-width: 0.8; stroke-linecap: square"/>
     </g>
     <g id="line2d_14">
      <defs>
       <path id="m7e0dcd4aad" d="M 0 0 
L -3.5 0 
" style="stroke: #000000; stroke-width: 0.8"/>
      </defs>
      <g>
       <use xlink:href="#m7e0dcd4aad" x="48.90125" y="402.816261" style="stroke: #000000; stroke-width: 0.8"/>
      </g>
     </g>
     <g id="text_8">
      <text style="font-size: 10px; font-family: 'DejaVu Sans'; text-anchor: end" x="41.90125" y="406.61548" transform="rotate(-0 41.90125 406.61548)">100</text>
     </g>
    </g>
    <g id="ytick_2">
     <g id="line2d_15">
      <path d="M 48.90125 344.655013 
L 946.02125 344.655013 
" clip-path="url(#pea549cb230)" style="fill: none; stroke: #b0b0b0; stroke-opacity: 0.25; stroke-width: 0.8; stroke-linecap: square"/>
     </g>
     <g id="line2d_16">
      <g>
       <use xlink:href="#m7e0dcd4aad" x="48.90125" y="344.655013" style="stroke: #000000; stroke-width: 0.8"/>
      </g>
     </g>
     <g id="text_9">
      <text style="font-size: 10px; font-family: 'DejaVu Sans'; text-anchor: end" x="41.90125" y="348.454232" transform="rotate(-0 41.90125 348.454232)">200</text>
     </g>
    </g>
    <g id="ytick_3">
     <g id="line2d_17">
      <path d="M 48.90125 286.493765 
L 946.02125 286.493765 
" clip-path="url(#pea549cb230)" style="fill: none; stroke: #b0b0b0; stroke-opacity: 0.25; stroke-width: 0.8; stroke-linecap: square"/>
     </g>
     <g id="line2d_18">
      <g>
       <use xlink:href="#m7e0dcd4aad" x="48.90125" y="286.493765" style="stroke: #000000; stroke-width: 0.8"/>
      </g>
     </g>
     <g id="text_10">
      <text style="font-size: 10px; font-family: 'DejaVu Sans'; text-anchor: end" x="41.90125" y="290.292984" transform="rotate(-0 41.90125 290.292984)">300</text>
     </g>
    </g>
    <g id="ytick_4">
     <g id="line2d_19">
      <path d="M 48.90125 228.332518 
L 946.02125 228.332518 
" clip-path="url(#pea549cb230)" style="fill: none; stroke: #b0b0b0; stroke-opacity: 0.25; stroke-width: 0.8; stroke-linecap: square"/>
     </g>
     <g id="line2d_20">
      <g>
       <use xlink:href="#m7e0dcd4aad" x="48.90125" y="228.332518" style="stroke: #000000; stroke-width: 0.8"/>
      </g>
     </g>
     <g id="text_11">
      <text style="font-size: 10px; font-family: 'DejaVu Sans'; text-anchor: end" x="41.90125" y="232.131736" transform="rotate(-0 41.90125 232.131736)">400</text>
     </g>
    </g>
    <g id="ytick_5">
     <g id="line2d_21">
      <path d="M 48.90125 170.17127 
L 946.02125 170.17127 
" clip-path="url(#pea549cb230)" style="fill: none; stroke: #b0b0b0; stroke-opacity: 0.25; stroke-width: 0.8; stroke-linecap: square"/>
     </g>
     <g id="line2d_22">
      <g>
       <use xlink:href="#m7e0dcd4aad" x="48.90125" y="170.17127" style="stroke: #000000; stroke-width: 0.8"/>
      </g>
     </g>
     <g id="text_12">
      <text style="font-size: 10px; font-family: 'DejaVu Sans'; text-anchor: end" x="41.90125" y="173.970489" transform="rotate(-0 41.90125 173.970489)">500</text>
     </g>
    </g>
    <g id="text_13">
     <text style="font-size: 12px; font-family: 'DejaVu Sans'; text-anchor: middle" x="16.318125" y="289.152" transform="rotate(-90 16.318125 289.152)">Average frames per second</text>
    </g>
   </g>
   <g id="line2d_23">
    <path d="M 89.679432 145.039467 
L 122.631498 262.32591 
L 163.821581 313.50422 
L 287.391829 377.571633 
L 493.342242 417.82018 
L 905.243068 441.792 
" clip-path="url(#pea549cb230)" style="fill: none; stroke: #1f77b4; stroke-width: 2.2; stroke-linecap: square"/>
    <defs>
     <path id="m3eb3ff4d15" d="M 0 3 
C 0.795609 3 1.55874 2.683901 2.12132 2.12132 
C 2.683901 1.55874 3 0.795609 3 0 
C 3 -0.795609 2.683901 -1.55874 2.12132 -2.12132 
C 1.55874 -2.683901 0.795609 -3 0 -3 
C -0.795609 -3 -1.55874 -2.683901 -2.12132 -2.12132 
C -2.683901 -1.55874 -3 -0.795609 -3 0 
C -3 0.795609 -2.683901 1.55874 -2.12132 2.12132 
C -1.55874 2.683901 -0.795609 3 0 3 
z
" style="stroke: #1f77b4"/>
    </defs>
    <g clip-path="url(#pea549cb230)">
     <use xlink:href="#m3eb3ff4d15" x="89.679432" y="145.039467" style="fill: #1f77b4; stroke: #1f77b4"/>
     <use xlink:href="#m3eb3ff4d15" x="122.631498" y="262.32591" style="fill: #1f77b4; stroke: #1f77b4"/>
     <use xlink:href="#m3eb3ff4d15" x="163.821581" y="313.50422" style="fill: #1f77b4; stroke: #1f77b4"/>
     <use xlink:href="#m3eb3ff4d15" x="287.391829" y="377.571633" style="fill: #1f77b4; stroke: #1f77b4"/>
     <use xlink:href="#m3eb3ff4d15" x="493.342242" y="417.82018" style="fill: #1f77b4; stroke: #1f77b4"/>
     <use xlink:href="#m3eb3ff4d15" x="905.243068" y="441.792" style="fill: #1f77b4; stroke: #1f77b4"/>
    </g>
   </g>
   <g id="line2d_24">
    <path d="M 89.679432 153.187903 
L 122.631498 276.376321 
L 163.821581 324.447004 
L 287.391829 383.930924 
L 493.342242 420.710191 
L 905.243068 437.670665 
" clip-path="url(#pea549cb230)" style="fill: none; stroke: #d62728; stroke-width: 2.2; stroke-linecap: square"/>
    <defs>
     <path id="mfbf17a4379" d="M 0 3 
C 0.795609 3 1.55874 2.683901 2.12132 2.12132 
C 2.683901 1.55874 3 0.795609 3 0 
C 3 -0.795609 2.683901 -1.55874 2.12132 -2.12132 
C 1.55874 -2.683901 0.795609 -3 0 -3 
C -0.795609 -3 -1.55874 -2.683901 -2.12132 -2.12132 
C -2.683901 -1.55874 -3 -0.795609 -3 0 
C -3 0.795609 -2.683901 1.55874 -2.12132 2.12132 
C -1.55874 2.683901 -0.795609 3 0 3 
z
" style="stroke: #d62728"/>
    </defs>
    <g clip-path="url(#pea549cb230)">
     <use xlink:href="#mfbf17a4379" x="89.679432" y="153.187903" style="fill: #d62728; stroke: #d62728"/>
     <use xlink:href="#mfbf17a4379" x="122.631498" y="276.376321" style="fill: #d62728; stroke: #d62728"/>
     <use xlink:href="#mfbf17a4379" x="163.821581" y="324.447004" style="fill: #d62728; stroke: #d62728"/>
     <use xlink:href="#mfbf17a4379" x="287.391829" y="383.930924" style="fill: #d62728; stroke: #d62728"/>
     <use xlink:href="#mfbf17a4379" x="493.342242" y="420.710191" style="fill: #d62728; stroke: #d62728"/>
     <use xlink:href="#mfbf17a4379" x="905.243068" y="437.670665" style="fill: #d62728; stroke: #d62728"/>
    </g>
   </g>
   <g id="line2d_25">
    <path d="M 89.679432 136.512 
L 122.631498 274.959549 
L 163.821581 323.41594 
L 287.391829 384.254358 
L 493.342242 420.992629 
L 905.243068 437.574136 
" clip-path="url(#pea549cb230)" style="fill: none; stroke: #2ca02c; stroke-width: 2.2; stroke-linecap: square"/>
    <defs>
     <path id="ma23e63cbf5" d="M 0 3 
C 0.795609 3 1.55874 2.683901 2.12132 2.12132 
C 2.683901 1.55874 3 0.795609 3 0 
C 3 -0.795609 2.683901 -1.55874 2.12132 -2.12132 
C 1.55874 -2.683901 0.795609 -3 0 -3 
C -0.795609 -3 -1.55874 -2.683901 -2.12132 -2.12132 
C -2.683901 -1.55874 -3 -0.795609 -3 0 
C -3 0.795609 -2.683901 1.55874 -2.12132 2.12132 
C -1.55874 2.683901 -0.795609 3 0 3 
z
" style="stroke: #2ca02c"/>
    </defs>
    <g clip-path="url(#pea549cb230)">
     <use xlink:href="#ma23e63cbf5" x="89.679432" y="136.512" style="fill: #2ca02c; stroke: #2ca02c"/>
     <use xlink:href="#ma23e63cbf5" x="122.631498" y="274.959549" style="fill: #2ca02c; stroke: #2ca02c"/>
     <use xlink:href="#ma23e63cbf5" x="163.821581" y="323.41594" style="fill: #2ca02c; stroke: #2ca02c"/>
     <use xlink:href="#ma23e63cbf5" x="287.391829" y="384.254358" style="fill: #2ca02c; stroke: #2ca02c"/>
     <use xlink:href="#ma23e63cbf5" x="493.342242" y="420.992629" style="fill: #2ca02c; stroke: #2ca02c"/>
     <use xlink:href="#ma23e63cbf5" x="905.243068" y="437.574136" style="fill: #2ca02c; stroke: #2ca02c"/>
    </g>
   </g>
   <g id="patch_3">
    <path d="M 48.90125 457.056 
L 48.90125 121.248 
" style="fill: none; stroke: #000000; stroke-width: 0.8; stroke-linejoin: miter; stroke-linecap: square"/>
   </g>
   <g id="patch_4">
    <path d="M 946.02125 457.056 
L 946.02125 121.248 
" style="fill: none; stroke: #000000; stroke-width: 0.8; stroke-linejoin: miter; stroke-linecap: square"/>
   </g>
   <g id="patch_5">
    <path d="M 48.90125 457.056 
L 946.02125 457.056 
" style="fill: none; stroke: #000000; stroke-width: 0.8; stroke-linejoin: miter; stroke-linecap: square"/>
   </g>
   <g id="patch_6">
    <path d="M 48.90125 121.248 
L 946.02125 121.248 
" style="fill: none; stroke: #000000; stroke-width: 0.8; stroke-linejoin: miter; stroke-linecap: square"/>
   </g>
   <g id="text_14">
    <text style="font-weight: 700; font-size: 10px; font-family: 'DejaVu Sans'; text-anchor: middle" x="497.46125" y="107.248" transform="rotate(-0 497.46125 107.248)">Best measured worker count per implementation</text>
   </g>
  </g>
  <g id="text_15">
   <text style="font-weight: 700; font-size: 16px; font-family: 'DejaVu Sans'; text-anchor: middle" x="462.18125" y="19.3575" transform="rotate(-0 462.18125 19.3575)">GUI FPS vs number of balls</text>
  </g>
  <g id="text_16">
   <g id="patch_7">
    <path d="M 135.125156 599.423 
L 789.237344 599.423 
Q 792.212344 599.423 792.212344 596.448 
L 792.212344 587.948 
Q 792.212344 584.973 789.237344 584.973 
L 135.125156 584.973 
Q 132.150156 584.973 132.150156 587.948 
L 132.150156 596.448 
Q 132.150156 599.423 135.125156 599.423 
z
" style="fill: #f7f7f7; opacity: 0.95; stroke: #d9d9d9; stroke-linejoin: miter"/>
   </g>
   <text style="font-size: 8.5px; font-family: 'DejaVu Sans'; text-anchor: middle; fill: #444444" x="462.18125" y="594.443859" transform="rotate(-0 462.18125 594.443859)">CPU: Intel64 Family 6 Model 154 Stepping 4, GenuineIntel | 12 logical threads, JVM available=12 | RAM: 31.7 GiB | JVM: 21.0.11+10-LTS | OS: Windows 11</text>
  </g>
  <g id="legend_1">
   <g id="line2d_26">
    <path d="M 320.36375 69.128281 
L 331.36375 69.128281 
L 342.36375 69.128281 
" style="fill: none; stroke: #1f77b4; stroke-width: 2.2; stroke-linecap: square"/>
    <g>
     <use xlink:href="#m3eb3ff4d15" x="331.36375" y="69.128281" style="fill: #1f77b4; stroke: #1f77b4"/>
    </g>
   </g>
   <g id="text_17">
    <text style="font-size: 11px; font-family: 'DejaVu Sans'; text-anchor: start" x="351.16375" y="72.978281" transform="rotate(-0 351.16375 72.978281)">sequential</text>
   </g>
   <g id="line2d_27">
    <path d="M 430.521875 69.128281 
L 441.521875 69.128281 
L 452.521875 69.128281 
" style="fill: none; stroke: #d62728; stroke-width: 2.2; stroke-linecap: square"/>
    <g>
     <use xlink:href="#mfbf17a4379" x="441.521875" y="69.128281" style="fill: #d62728; stroke: #d62728"/>
    </g>
   </g>
   <g id="text_18">
    <text style="font-size: 11px; font-family: 'DejaVu Sans'; text-anchor: start" x="461.321875" y="72.978281" transform="rotate(-0 461.321875 72.978281)">threads</text>
   </g>
   <g id="line2d_28">
    <path d="M 525.102969 69.128281 
L 536.102969 69.128281 
L 547.102969 69.128281 
" style="fill: none; stroke: #2ca02c; stroke-width: 2.2; stroke-linecap: square"/>
    <g>
     <use xlink:href="#ma23e63cbf5" x="536.102969" y="69.128281" style="fill: #2ca02c; stroke: #2ca02c"/>
    </g>
   </g>
   <g id="text_19">
    <text style="font-size: 11px; font-family: 'DejaVu Sans'; text-anchor: start" x="555.902969" y="72.978281" transform="rotate(-0 555.902969 72.978281)">executor</text>
   </g>
  </g>
 </g>
 <defs>
  <clipPath id="pea549cb230">
   <rect x="48.90125" y="121.248" width="897.12" height="335.808"/>
  </clipPath>
 </defs>
</svg>
