<?xml version="1.0" encoding="utf-8" standalone="no"?>
<!DOCTYPE svg PUBLIC "-//W3C//DTD SVG 1.1//EN"
  "http://www.w3.org/Graphics/SVG/1.1/DTD/svg11.dtd">
<svg xmlns:xlink="http://www.w3.org/1999/xlink" width="600.137656pt" height="379.872pt" viewBox="0 0 600.137656 379.872" xmlns="http://www.w3.org/2000/svg" version="1.1">
 <metadata>
  <rdf:RDF xmlns:dc="http://purl.org/dc/elements/1.1/" xmlns:cc="http://creativecommons.org/ns#" xmlns:rdf="http://www.w3.org/1999/02/22-rdf-syntax-ns#">
   <cc:Work>
    <dc:type rdf:resource="http://purl.org/dc/dcmitype/StillImage"/>
    <dc:date>2026-07-02T22:15:40.040405</dc:date>
    <dc:format>image/svg+xml</dc:format>
    <dc:creator>
     <cc:Agent>
      <dc:title>Matplotlib v3.10.7, https://matplotlib.org/</dc:title>
     </cc:Agent>
    </dc:creator>
   </cc:Work>
  </rdf:RDF>
 </metadata>
 <defs>
  <style type="text/css">*{stroke-linejoin: round; stroke-linecap: butt}</style>
 </defs>
 <g id="figure_1">
  <g id="patch_1">
   <path d="M 0 379.872 
L 600.137656 379.872 
L 600.137656 0 
L 0 0 
z
" style="fill: #ffffff"/>
  </g>
  <g id="axes_1">
   <g id="patch_2">
    <path d="M 78.308828 287.136 
L 541.988828 287.136 
L 541.988828 73.296 
L 78.308828 73.296 
z
" style="fill: #ffffff"/>
   </g>
   <g id="matplotlib.axis_1">
    <g id="xtick_1">
     <g id="line2d_1">
      <path d="M 99.385192 287.136 
L 99.385192 73.296 
" clip-path="url(#pc5bd0347bd)" style="fill: none; stroke: #b0b0b0; stroke-opacity: 0.25; stroke-width: 0.8; stroke-linecap: square"/>
     </g>
     <g id="line2d_2">
      <defs>
       <path id="m9d456eb611" d="M 0 0 
L 0 3.5 
" style="stroke: #000000; stroke-width: 0.8"/>
      </defs>
      <g>
       <use xlink:href="#m9d456eb611" x="99.385192" y="287.136" style="stroke: #000000; stroke-width: 0.8"/>
      </g>
     </g>
     <g id="text_1">
      <text style="font-size: 10px; font-family: 'DejaVu Sans'; text-anchor: middle" x="99.385192" y="301.734437" transform="rotate(-0 99.385192 301.734437)">1</text>
     </g>
    </g>
    <g id="xtick_2">
     <g id="line2d_3">
      <path d="M 134.512464 287.136 
L 134.512464 73.296 
" clip-path="url(#pc5bd0347bd)" style="fill: none; stroke: #b0b0b0; stroke-opacity: 0.25; stroke-width: 0.8; stroke-linecap: square"/>
     </g>
     <g id="line2d_4">
      <g>
       <use xlink:href="#m9d456eb611" x="134.512464" y="287.136" style="stroke: #000000; stroke-width: 0.8"/>
      </g>
     </g>
     <g id="text_2">
      <text style="font-size: 10px; font-family: 'DejaVu Sans'; text-anchor: middle" x="134.512464" y="301.734437" transform="rotate(-0 134.512464 301.734437)">2</text>
     </g>
    </g>
    <g id="xtick_3">
     <g id="line2d_5">
      <path d="M 204.76701 287.136 
L 204.76701 73.296 
" clip-path="url(#pc5bd0347bd)" style="fill: none; stroke: #b0b0b0; stroke-opacity: 0.25; stroke-width: 0.8; stroke-linecap: square"/>
     </g>
     <g id="line2d_6">
      <g>
       <use xlink:href="#m9d456eb611" x="204.76701" y="287.136" style="stroke: #000000; stroke-width: 0.8"/>
      </g>
     </g>
     <g id="text_3">
      <text style="font-size: 10px; font-family: 'DejaVu Sans'; text-anchor: middle" x="204.76701" y="301.734437" transform="rotate(-0 204.76701 301.734437)">4</text>
     </g>
    </g>
    <g id="xtick_4">
     <g id="line2d_7">
      <path d="M 345.276101 287.136 
L 345.276101 73.296 
" clip-path="url(#pc5bd0347bd)" style="fill: none; stroke: #b0b0b0; stroke-opacity: 0.25; stroke-width: 0.8; stroke-linecap: square"/>
     </g>
     <g id="line2d_8">
      <g>
       <use xlink:href="#m9d456eb611" x="345.276101" y="287.136" style="stroke: #000000; stroke-width: 0.8"/>
      </g>
     </g>
     <g id="text_4">
      <text style="font-size: 10px; font-family: 'DejaVu Sans'; text-anchor: middle" x="345.276101" y="301.734437" transform="rotate(-0 345.276101 301.734437)">8</text>
     </g>
    </g>
    <g id="xtick_5">
     <g id="line2d_9">
      <path d="M 485.785192 287.136 
L 485.785192 73.296 
" clip-path="url(#pc5bd0347bd)" style="fill: none; stroke: #b0b0b0; stroke-opacity: 0.25; stroke-width: 0.8; stroke-linecap: square"/>
     </g>
     <g id="line2d_10">
      <g>
       <use xlink:href="#m9d456eb611" x="485.785192" y="287.136" style="stroke: #000000; stroke-width: 0.8"/>
      </g>
     </g>
     <g id="text_5">
      <text style="font-size: 10px; font-family: 'DejaVu Sans'; text-anchor: middle" x="485.785192" y="301.734437" transform="rotate(-0 485.785192 301.734437)">12</text>
     </g>
    </g>
    <g id="xtick_6">
     <g id="line2d_11">
      <path d="M 520.912464 287.136 
L 520.912464 73.296 
" clip-path="url(#pc5bd0347bd)" style="fill: none; stroke: #b0b0b0; stroke-opacity: 0.25; stroke-width: 0.8; stroke-linecap: square"/>
     </g>
     <g id="line2d_12">
      <g>
       <use xlink:href="#m9d456eb611" x="520.912464" y="287.136" style="stroke: #000000; stroke-width: 0.8"/>
      </g>
     </g>
     <g id="text_6">
      <text style="font-size: 10px; font-family: 'DejaVu Sans'; text-anchor: middle" x="520.912464" y="301.734437" transform="rotate(-0 520.912464 301.734437)">13</text>
     </g>
    </g>
    <g id="text_7">
     <text style="font-size: 12px; font-family: 'DejaVu Sans'; text-anchor: middle" x="310.148828" y="316.93225" transform="rotate(-0 310.148828 316.93225)">Worker threads</text>
    </g>
   </g>
   <g id="matplotlib.axis_2">
    <g id="ytick_1">
     <g id="line2d_13">
      <path d="M 78.308828 257.976 
L 541.988828 257.976 
" clip-path="url(#pc5bd0347bd)" style="fill: none; stroke: #b0b0b0; stroke-opacity: 0.25; stroke-width: 0.8; stroke-linecap: square"/>
     </g>
     <g id="line2d_14">
      <defs>
       <path id="m0b168e5560" d="M 0 0 
L -3.5 0 
" style="stroke: #000000; stroke-width: 0.8"/>
      </defs>
      <g>
       <use xlink:href="#m0b168e5560" x="78.308828" y="257.976" style="stroke: #000000; stroke-width: 0.8"/>
      </g>
     </g>
     <g id="text_8">
      <text style="font-size: 10px; font-family: 'DejaVu Sans'; text-anchor: end" x="71.308828" y="261.775219" transform="rotate(-0 71.308828 261.775219)">−0.04</text>
     </g>
    </g>
    <g id="ytick_2">
     <g id="line2d_15">
      <path d="M 78.308828 219.096 
L 541.988828 219.096 
" clip-path="url(#pc5bd0347bd)" style="fill: none; stroke: #b0b0b0; stroke-opacity: 0.25; stroke-width: 0.8; stroke-linecap: square"/>
     </g>
     <g id="line2d_16">
      <g>
       <use xlink:href="#m0b168e5560" x="78.308828" y="219.096" style="stroke: #000000; stroke-width: 0.8"/>
      </g>
     </g>
     <g id="text_9">
      <text style="font-size: 10px; font-family: 'DejaVu Sans'; text-anchor: end" x="71.308828" y="222.895219" transform="rotate(-0 71.308828 222.895219)">−0.02</text>
     </g>
    </g>
    <g id="ytick_3">
     <g id="line2d_17">
      <path d="M 78.308828 180.216 
L 541.988828 180.216 
" clip-path="url(#pc5bd0347bd)" style="fill: none; stroke: #b0b0b0; stroke-opacity: 0.25; stroke-width: 0.8; stroke-linecap: square"/>
     </g>
     <g id="line2d_18">
      <g>
       <use xlink:href="#m0b168e5560" x="78.308828" y="180.216" style="stroke: #000000; stroke-width: 0.8"/>
      </g>
     </g>
     <g id="text_10">
      <text style="font-size: 10px; font-family: 'DejaVu Sans'; text-anchor: end" x="71.308828" y="184.015219" transform="rotate(-0 71.308828 184.015219)">0.00</text>
     </g>
    </g>
    <g id="ytick_4">
     <g id="line2d_19">
      <path d="M 78.308828 141.336 
L 541.988828 141.336 
" clip-path="url(#pc5bd0347bd)" style="fill: none; stroke: #b0b0b0; stroke-opacity: 0.25; stroke-width: 0.8; stroke-linecap: square"/>
     </g>
     <g id="line2d_20">
      <g>
       <use xlink:href="#m0b168e5560" x="78.308828" y="141.336" style="stroke: #000000; stroke-width: 0.8"/>
      </g>
     </g>
     <g id="text_11">
      <text style="font-size: 10px; font-family: 'DejaVu Sans'; text-anchor: end" x="71.308828" y="145.135219" transform="rotate(-0 71.308828 145.135219)">0.02</text>
     </g>
    </g>
    <g id="ytick_5">
     <g id="line2d_21">
      <path d="M 78.308828 102.456 
L 541.988828 102.456 
" clip-path="url(#pc5bd0347bd)" style="fill: none; stroke: #b0b0b0; stroke-opacity: 0.25; stroke-width: 0.8; stroke-linecap: square"/>
     </g>
     <g id="line2d_22">
      <g>
       <use xlink:href="#m0b168e5560" x="78.308828" y="102.456" style="stroke: #000000; stroke-width: 0.8"/>
      </g>
     </g>
     <g id="text_12">
      <text style="font-size: 10px; font-family: 'DejaVu Sans'; text-anchor: end" x="71.308828" y="106.255219" transform="rotate(-0 71.308828 106.255219)">0.04</text>
     </g>
    </g>
    <g id="text_13">
     <text style="font-size: 12px; font-family: 'DejaVu Sans'; text-anchor: middle" x="34.167891" y="180.216" transform="rotate(-90 34.167891 180.216)">Coordination time (ms)</text>
    </g>
   </g>
   <g id="line2d_23">
    <path d="M 99.385192 180.216 
L 134.512464 180.216 
L 204.76701 180.216 
L 345.276101 180.216 
L 485.785192 180.216 
L 520.912464 180.216 
" clip-path="url(#pc5bd0347bd)" style="fill: none; stroke: #d62728; stroke-width: 2; stroke-linecap: square"/>
    <defs>
     <path id="m974594186b" d="M 0 3 
C 0.795609 3 1.55874 2.683901 2.12132 2.12132 
C 2.683901 1.55874 3 0.795609 3 0 
C 3 -0.795609 2.683901 -1.55874 2.12132 -2.12132 
C 1.55874 -2.683901 0.795609 -3 0 -3 
C -0.795609 -3 -1.55874 -2.683901 -2.12132 -2.12132 
C -2.683901 -1.55874 -3 -0.795609 -3 0 
C -3 0.795609 -2.683901 1.55874 -2.12132 2.12132 
C -1.55874 2.683901 -0.795609 3 0 3 
z
" style="stroke: #d62728"/>
    </defs>
    <g clip-path="url(#pc5bd0347bd)">
     <use xlink:href="#m974594186b" x="99.385192" y="180.216" style="fill: #d62728; stroke: #d62728"/>
     <use xlink:href="#m974594186b" x="134.512464" y="180.216" style="fill: #d62728; stroke: #d62728"/>
     <use xlink:href="#m974594186b" x="204.76701" y="180.216" style="fill: #d62728; stroke: #d62728"/>
     <use xlink:href="#m974594186b" x="345.276101" y="180.216" style="fill: #d62728; stroke: #d62728"/>
     <use xlink:href="#m974594186b" x="485.785192" y="180.216" style="fill: #d62728; stroke: #d62728"/>
     <use xlink:href="#m974594186b" x="520.912464" y="180.216" style="fill: #d62728; stroke: #d62728"/>
    </g>
   </g>
   <g id="line2d_24">
    <path d="M 99.385192 180.216 
L 134.512464 180.216 
L 204.76701 180.216 
L 345.276101 180.216 
L 485.785192 180.216 
L 520.912464 180.216 
" clip-path="url(#pc5bd0347bd)" style="fill: none; stroke: #2ca02c; stroke-width: 2; stroke-linecap: square"/>
    <defs>
     <path id="m8ccc78ad39" d="M 0 3 
C 0.795609 3 1.55874 2.683901 2.12132 2.12132 
C 2.683901 1.55874 3 0.795609 3 0 
C 3 -0.795609 2.683901 -1.55874 2.12132 -2.12132 
C 1.55874 -2.683901 0.795609 -3 0 -3 
C -0.795609 -3 -1.55874 -2.683901 -2.12132 -2.12132 
C -2.683901 -1.55874 -3 -0.795609 -3 0 
C -3 0.795609 -2.683901 1.55874 -2.12132 2.12132 
C -1.55874 2.683901 -0.795609 3 0 3 
z
" style="stroke: #2ca02c"/>
    </defs>
    <g clip-path="url(#pc5bd0347bd)">
     <use xlink:href="#m8ccc78ad39" x="99.385192" y="180.216" style="fill: #2ca02c; stroke: #2ca02c"/>
     <use xlink:href="#m8ccc78ad39" x="134.512464" y="180.216" style="fill: #2ca02c; stroke: #2ca02c"/>
     <use xlink:href="#m8ccc78ad39" x="204.76701" y="180.216" style="fill: #2ca02c; stroke: #2ca02c"/>
     <use xlink:href="#m8ccc78ad39" x="345.276101" y="180.216" style="fill: #2ca02c; stroke: #2ca02c"/>
     <use xlink:href="#m8ccc78ad39" x="485.785192" y="180.216" style="fill: #2ca02c; stroke: #2ca02c"/>
     <use xlink:href="#m8ccc78ad39" x="520.912464" y="180.216" style="fill: #2ca02c; stroke: #2ca02c"/>
    </g>
   </g>
   <g id="patch_3">
    <path d="M 78.308828 287.136 
L 78.308828 73.296 
" style="fill: none; stroke: #000000; stroke-width: 0.8; stroke-linejoin: miter; stroke-linecap: square"/>
   </g>
   <g id="patch_4">
    <path d="M 541.988828 287.136 
L 541.988828 73.296 
" style="fill: none; stroke: #000000; stroke-width: 0.8; stroke-linejoin: miter; stroke-linecap: square"/>
   </g>
   <g id="patch_5">
    <path d="M 78.308828 287.136 
L 541.988828 287.136 
" style="fill: none; stroke: #000000; stroke-width: 0.8; stroke-linejoin: miter; stroke-linecap: square"/>
   </g>
   <g id="patch_6">
    <path d="M 78.308828 73.296 
L 541.988828 73.296 
" style="fill: none; stroke: #000000; stroke-width: 0.8; stroke-linejoin: miter; stroke-linecap: square"/>
   </g>
   <g id="text_14">
    <text style="font-weight: 700; font-size: 11px; font-family: 'DejaVu Sans'; text-anchor: middle" x="310.148828" y="67.296" transform="rotate(-0 310.148828 67.296)">2500 balls</text>
   </g>
  </g>
  <g id="text_15">
   <text style="font-weight: 700; font-size: 16px; font-family: 'DejaVu Sans'; text-anchor: middle" x="300.068828" y="19.3575" transform="rotate(-0 300.068828 19.3575)">Coordination overhead vs worker threads</text>
  </g>
  <g id="text_16">
   <g id="patch_7">
    <path d="M 7.2 375.647 
L 592.937656 375.647 
Q 595.912656 375.647 595.912656 372.672 
L 595.912656 354.372828 
Q 595.912656 351.397828 592.937656 351.397828 
L 7.2 351.397828 
Q 4.225 351.397828 4.225 354.372828 
L 4.225 372.672 
Q 4.225 375.647 7.2 375.647 
z
" style="fill: #f7f7f7; opacity: 0.95; stroke: #d9d9d9; stroke-linejoin: miter"/>
   </g>
   <text style="font-size: 8.5px; font-family: 'DejaVu Sans'; fill: #444444" transform="translate(7.2 360.868687)">CPU: Intel64 Family 6 Model 154 Stepping 4, GenuineIntel | 10 physical cores, 12 logical threads, JVM available=12 | RAM: 31.7 GiB | JVM:</text>
   <text style="font-size: 8.5px; font-family: 'DejaVu Sans'; fill: #444444" transform="translate(227.579766 370.667859)">21.0.11+10-LTS | OS: Windows 11</text>
  </g>
  <g id="legend_1">
   <g id="line2d_25">
    <path d="M 213.330391 48.824281 
L 224.330391 48.824281 
L 235.330391 48.824281 
" style="fill: none; stroke: #d62728; stroke-width: 2; stroke-linecap: square"/>
    <g>
     <use xlink:href="#m974594186b" x="224.330391" y="48.824281" style="fill: #d62728; stroke: #d62728"/>
    </g>
   </g>
   <g id="text_17">
    <text style="font-size: 11px; font-family: 'DejaVu Sans'; text-anchor: start" x="244.130391" y="52.674281" transform="rotate(-0 244.130391 52.674281)">threads</text>
   </g>
   <g id="line2d_26">
    <path d="M 307.911484 48.824281 
L 318.911484 48.824281 
L 329.911484 48.824281 
" style="fill: none; stroke: #2ca02c; stroke-width: 2; stroke-linecap: square"/>
    <g>
     <use xlink:href="#m8ccc78ad39" x="318.911484" y="48.824281" style="fill: #2ca02c; stroke: #2ca02c"/>
    </g>
   </g>
   <g id="text_18">
    <text style="font-size: 11px; font-family: 'DejaVu Sans'; text-anchor: start" x="338.711484" y="52.674281" transform="rotate(-0 338.711484 52.674281)">executor</text>
   </g>
  </g>
 </g>
 <defs>
  <clipPath id="pc5bd0347bd">
   <rect x="78.308828" y="73.296" width="463.68" height="213.84"/>
  </clipPath>
 </defs>
</svg>
