<?xml version="1.0" encoding="utf-8" standalone="no"?>
<!DOCTYPE svg PUBLIC "-//W3C//DTD SVG 1.1//EN"
  "http://www.w3.org/Graphics/SVG/1.1/DTD/svg11.dtd">
<svg xmlns:xlink="http://www.w3.org/1999/xlink" width="950.036875pt" height="603.648pt" viewBox="0 0 950.036875 603.648" xmlns="http://www.w3.org/2000/svg" version="1.1">
 <metadata>
  <rdf:RDF xmlns:dc="http://purl.org/dc/elements/1.1/" xmlns:cc="http://creativecommons.org/ns#" xmlns:rdf="http://www.w3.org/1999/02/22-rdf-syntax-ns#">
   <cc:Work>
    <dc:type rdf:resource="http://purl.org/dc/dcmitype/StillImage"/>
    <dc:date>2026-08-04T20:12:05.152177</dc:date>
    <dc:format>image/svg+xml</dc:format>
    <dc:creator>
     <cc:Agent>
      <dc:title>Matplotlib v3.10.0, https://matplotlib.org/</dc:title>
     </cc:Agent>
    </dc:creator>
   </cc:Work>
  </rdf:RDF>
 </metadata>
 <defs>
  <style type="text/css">*{stroke-linejoin: round; stroke-linecap: butt}</style>
 </defs>
 <g id="figure_1">
  <g id="patch_1">
   <path d="M 0 603.648 
L 950.036875 603.648 
L 950.036875 0 
L 0 0 
z
" style="fill: #ffffff"/>
  </g>
  <g id="axes_1">
   <g id="patch_2">
    <path d="M 45.716875 457.056 
L 942.836875 457.056 
L 942.836875 121.248 
L 45.716875 121.248 
z
" style="fill: #ffffff"/>
   </g>
   <g id="matplotlib.axis_1">
    <g id="xtick_1">
     <g id="line2d_1">
      <path d="M 86.495057 457.056 
L 86.495057 121.248 
" clip-path="url(#p6d8d43703b)" style="fill: none; stroke: #b0b0b0; stroke-opacity: 0.25; stroke-width: 0.8; stroke-linecap: square"/>
     </g>
     <g id="line2d_2">
      <defs>
       <path id="mc1e8b0e4fc" d="M 0 0 
L 0 3.5 
" style="stroke: #000000; stroke-width: 0.8"/>
      </defs>
      <g>
       <use xlink:href="#mc1e8b0e4fc" x="86.495057" y="457.056" style="stroke: #000000; stroke-width: 0.8"/>
      </g>
     </g>
     <g id="text_1">
      <text style="font-size: 10px; font-family: 'DejaVu Sans'; text-anchor: middle" x="86.495057" y="471.654437" transform="rotate(-0 86.495057 471.654437)">1000</text>
     </g>
    </g>
    <g id="xtick_2">
     <g id="line2d_3">
      <path d="M 358.349602 457.056 
L 358.349602 121.248 
" clip-path="url(#p6d8d43703b)" style="fill: none; stroke: #b0b0b0; stroke-opacity: 0.25; stroke-width: 0.8; stroke-linecap: square"/>
     </g>
     <g id="line2d_4">
      <g>
       <use xlink:href="#mc1e8b0e4fc" x="358.349602" y="457.056" style="stroke: #000000; stroke-width: 0.8"/>
      </g>
     </g>
     <g id="text_2">
      <text style="font-size: 10px; font-family: 'DejaVu Sans'; text-anchor: middle" x="358.349602" y="471.654437" transform="rotate(-0 358.349602 471.654437)">1500</text>
     </g>
    </g>
    <g id="xtick_3">
     <g id="line2d_5">
      <path d="M 630.204148 457.056 
L 630.204148 121.248 
" clip-path="url(#p6d8d43703b)" style="fill: none; stroke: #b0b0b0; stroke-opacity: 0.25; stroke-width: 0.8; stroke-linecap: square"/>
     </g>
     <g id="line2d_6">
      <g>
       <use xlink:href="#mc1e8b0e4fc" x="630.204148" y="457.056" style="stroke: #000000; stroke-width: 0.8"/>
      </g>
     </g>
     <g id="text_3">
      <text style="font-size: 10px; font-family: 'DejaVu Sans'; text-anchor: middle" x="630.204148" y="471.654437" transform="rotate(-0 630.204148 471.654437)">2000</text>
     </g>
    </g>
    <g id="xtick_4">
     <g id="line2d_7">
      <path d="M 902.058693 457.056 
L 902.058693 121.248 
" clip-path="url(#p6d8d43703b)" style="fill: none; stroke: #b0b0b0; stroke-opacity: 0.25; stroke-width: 0.8; stroke-linecap: square"/>
     </g>
     <g id="line2d_8">
      <g>
       <use xlink:href="#mc1e8b0e4fc" x="902.058693" y="457.056" style="stroke: #000000; stroke-width: 0.8"/>
      </g>
     </g>
     <g id="text_4">
      <text style="font-size: 10px; font-family: 'DejaVu Sans'; text-anchor: middle" x="902.058693" y="471.654437" transform="rotate(-0 902.058693 471.654437)">2500</text>
     </g>
    </g>
    <g id="text_5">
     <text style="font-size: 12px; font-family: 'DejaVu Sans'; text-anchor: middle" x="494.276875" y="486.85225" transform="rotate(-0 494.276875 486.85225)">Number of balls</text>
    </g>
   </g>
   <g id="matplotlib.axis_2">
    <g id="ytick_1">
     <g id="line2d_9">
      <path d="M 45.716875 448.993624 
L 942.836875 448.993624 
" clip-path="url(#p6d8d43703b)" style="fill: none; stroke: #b0b0b0; stroke-opacity: 0.25; stroke-width: 0.8; stroke-linecap: square"/>
     </g>
     <g id="line2d_10">
      <defs>
       <path id="mbaad945aa7" d="M 0 0 
L -3.5 0 
" style="stroke: #000000; stroke-width: 0.8"/>
      </defs>
      <g>
       <use xlink:href="#mbaad945aa7" x="45.716875" y="448.993624" style="stroke: #000000; stroke-width: 0.8"/>
      </g>
     </g>
     <g id="text_6">
      <text style="font-size: 10px; font-family: 'DejaVu Sans'; text-anchor: end" x="38.716875" y="452.792843" transform="rotate(-0 38.716875 452.792843)">1.3</text>
     </g>
    </g>
    <g id="ytick_2">
     <g id="line2d_11">
      <path d="M 45.716875 388.899964 
L 942.836875 388.899964 
" clip-path="url(#p6d8d43703b)" style="fill: none; stroke: #b0b0b0; stroke-opacity: 0.25; stroke-width: 0.8; stroke-linecap: square"/>
     </g>
     <g id="line2d_12">
      <g>
       <use xlink:href="#mbaad945aa7" x="45.716875" y="388.899964" style="stroke: #000000; stroke-width: 0.8"/>
      </g>
     </g>
     <g id="text_7">
      <text style="font-size: 10px; font-family: 'DejaVu Sans'; text-anchor: end" x="38.716875" y="392.699183" transform="rotate(-0 38.716875 392.699183)">1.4</text>
     </g>
    </g>
    <g id="ytick_3">
     <g id="line2d_13">
      <path d="M 45.716875 328.806304 
L 942.836875 328.806304 
" clip-path="url(#p6d8d43703b)" style="fill: none; stroke: #b0b0b0; stroke-opacity: 0.25; stroke-width: 0.8; stroke-linecap: square"/>
     </g>
     <g id="line2d_14">
      <g>
       <use xlink:href="#mbaad945aa7" x="45.716875" y="328.806304" style="stroke: #000000; stroke-width: 0.8"/>
      </g>
     </g>
     <g id="text_8">
      <text style="font-size: 10px; font-family: 'DejaVu Sans'; text-anchor: end" x="38.716875" y="332.605523" transform="rotate(-0 38.716875 332.605523)">1.5</text>
     </g>
    </g>
    <g id="ytick_4">
     <g id="line2d_15">
      <path d="M 45.716875 268.712644 
L 942.836875 268.712644 
" clip-path="url(#p6d8d43703b)" style="fill: none; stroke: #b0b0b0; stroke-opacity: 0.25; stroke-width: 0.8; stroke-linecap: square"/>
     </g>
     <g id="line2d_16">
      <g>
       <use xlink:href="#mbaad945aa7" x="45.716875" y="268.712644" style="stroke: #000000; stroke-width: 0.8"/>
      </g>
     </g>
     <g id="text_9">
      <text style="font-size: 10px; font-family: 'DejaVu Sans'; text-anchor: end" x="38.716875" y="272.511863" transform="rotate(-0 38.716875 272.511863)">1.6</text>
     </g>
    </g>
    <g id="ytick_5">
     <g id="line2d_17">
      <path d="M 45.716875 208.618984 
L 942.836875 208.618984 
" clip-path="url(#p6d8d43703b)" style="fill: none; stroke: #b0b0b0; stroke-opacity: 0.25; stroke-width: 0.8; stroke-linecap: square"/>
     </g>
     <g id="line2d_18">
      <g>
       <use xlink:href="#mbaad945aa7" x="45.716875" y="208.618984" style="stroke: #000000; stroke-width: 0.8"/>
      </g>
     </g>
     <g id="text_10">
      <text style="font-size: 10px; font-family: 'DejaVu Sans'; text-anchor: end" x="38.716875" y="212.418202" transform="rotate(-0 38.716875 212.418202)">1.7</text>
     </g>
    </g>
    <g id="ytick_6">
     <g id="line2d_19">
      <path d="M 45.716875 148.525324 
L 942.836875 148.525324 
" clip-path="url(#p6d8d43703b)" style="fill: none; stroke: #b0b0b0; stroke-opacity: 0.25; stroke-width: 0.8; stroke-linecap: square"/>
     </g>
     <g id="line2d_20">
      <g>
       <use xlink:href="#mbaad945aa7" x="45.716875" y="148.525324" style="stroke: #000000; stroke-width: 0.8"/>
      </g>
     </g>
     <g id="text_11">
      <text style="font-size: 10px; font-family: 'DejaVu Sans'; text-anchor: end" x="38.716875" y="152.324542" transform="rotate(-0 38.716875 152.324542)">1.8</text>
     </g>
    </g>
    <g id="text_12">
     <text style="font-size: 12px; font-family: 'DejaVu Sans'; text-anchor: middle" x="16.318125" y="289.152" transform="rotate(-90 16.318125 289.152)">Speedup</text>
    </g>
   </g>
   <g id="line2d_21">
    <path d="M 86.495057 438.497666 
L 358.349602 342.275096 
L 630.204148 168.414522 
L 902.058693 160.506798 
" clip-path="url(#p6d8d43703b)" style="fill: none; stroke: #d62728; stroke-width: 2.2; stroke-linecap: square"/>
    <defs>
     <path id="mcd4de3a290" d="M 0 3 
C 0.795609 3 1.55874 2.683901 2.12132 2.12132 
C 2.683901 1.55874 3 0.795609 3 0 
C 3 -0.795609 2.683901 -1.55874 2.12132 -2.12132 
C 1.55874 -2.683901 0.795609 -3 0 -3 
C -0.795609 -3 -1.55874 -2.683901 -2.12132 -2.12132 
C -2.683901 -1.55874 -3 -0.795609 -3 0 
C -3 0.795609 -2.683901 1.55874 -2.12132 2.12132 
C -1.55874 2.683901 -0.795609 3 0 3 
z
" style="stroke: #d62728"/>
    </defs>
    <g clip-path="url(#p6d8d43703b)">
     <use xlink:href="#mcd4de3a290" x="86.495057" y="438.497666" style="fill: #d62728; stroke: #d62728"/>
     <use xlink:href="#mcd4de3a290" x="358.349602" y="342.275096" style="fill: #d62728; stroke: #d62728"/>
     <use xlink:href="#mcd4de3a290" x="630.204148" y="168.414522" style="fill: #d62728; stroke: #d62728"/>
     <use xlink:href="#mcd4de3a290" x="902.058693" y="160.506798" style="fill: #d62728; stroke: #d62728"/>
    </g>
   </g>
   <g id="line2d_22">
    <path d="M 86.495057 441.792 
L 358.349602 368.636983 
L 630.204148 201.292365 
L 902.058693 136.512 
" clip-path="url(#p6d8d43703b)" style="fill: none; stroke: #2ca02c; stroke-width: 2.2; stroke-linecap: square"/>
    <defs>
     <path id="m7337fd7243" d="M 0 3 
C 0.795609 3 1.55874 2.683901 2.12132 2.12132 
C 2.683901 1.55874 3 0.795609 3 0 
C 3 -0.795609 2.683901 -1.55874 2.12132 -2.12132 
C 1.55874 -2.683901 0.795609 -3 0 -3 
C -0.795609 -3 -1.55874 -2.683901 -2.12132 -2.12132 
C -2.683901 -1.55874 -3 -0.795609 -3 0 
C -3 0.795609 -2.683901 1.55874 -2.12132 2.12132 
C -1.55874 2.683901 -0.795609 3 0 3 
z
" style="stroke: #2ca02c"/>
    </defs>
    <g clip-path="url(#p6d8d43703b)">
     <use xlink:href="#m7337fd7243" x="86.495057" y="441.792" style="fill: #2ca02c; stroke: #2ca02c"/>
     <use xlink:href="#m7337fd7243" x="358.349602" y="368.636983" style="fill: #2ca02c; stroke: #2ca02c"/>
     <use xlink:href="#m7337fd7243" x="630.204148" y="201.292365" style="fill: #2ca02c; stroke: #2ca02c"/>
     <use xlink:href="#m7337fd7243" x="902.058693" y="136.512" style="fill: #2ca02c; stroke: #2ca02c"/>
    </g>
   </g>
   <g id="patch_3">
    <path d="M 45.716875 457.056 
L 45.716875 121.248 
" style="fill: none; stroke: #000000; stroke-width: 0.8; stroke-linejoin: miter; stroke-linecap: square"/>
   </g>
   <g id="patch_4">
    <path d="M 942.836875 457.056 
L 942.836875 121.248 
" style="fill: none; stroke: #000000; stroke-width: 0.8; stroke-linejoin: miter; stroke-linecap: square"/>
   </g>
   <g id="patch_5">
    <path d="M 45.716875 457.056 
L 942.836875 457.056 
" style="fill: none; stroke: #000000; stroke-width: 0.8; stroke-linejoin: miter; stroke-linecap: square"/>
   </g>
   <g id="patch_6">
    <path d="M 45.716875 121.248 
L 942.836875 121.248 
" style="fill: none; stroke: #000000; stroke-width: 0.8; stroke-linejoin: miter; stroke-linecap: square"/>
   </g>
   <g id="text_13">
    <text style="font-weight: 700; font-size: 10px; font-family: 'DejaVu Sans'; text-anchor: middle" x="494.276875" y="107.248" transform="rotate(-0 494.276875 107.248)">Central tendency per implementation across measured scenarios</text>
   </g>
  </g>
  <g id="text_14">
   <text style="font-weight: 700; font-size: 16px; font-family: 'DejaVu Sans'; text-anchor: middle" x="458.996875" y="19.3575" transform="rotate(-0 458.996875 19.3575)">Speedup vs number of balls</text>
  </g>
  <g id="text_15">
   <g id="patch_7">
    <path d="M 345.904375 599.423 
L 572.089375 599.423 
Q 575.064375 599.423 575.064375 596.448 
L 575.064375 587.948 
Q 575.064375 584.973 572.089375 584.973 
L 345.904375 584.973 
Q 342.929375 584.973 342.929375 587.948 
L 342.929375 596.448 
Q 342.929375 599.423 345.904375 599.423 
z
" style="fill: #f7f7f7; opacity: 0.95; stroke: #d9d9d9; stroke-linejoin: miter"/>
   </g>
   <text style="font-size: 8.5px; font-family: 'DejaVu Sans'; text-anchor: middle; fill: #444444" x="458.996875" y="594.443859" transform="rotate(-0 458.996875 594.443859)">Max threads: 16 | JVM: 17.0.19+10 | OS: Windows 11</text>
  </g>
  <g id="legend_1">
   <g id="line2d_23">
    <path d="M 372.258437 69.128281 
L 383.258437 69.128281 
L 394.258437 69.128281 
" style="fill: none; stroke: #d62728; stroke-width: 2.2; stroke-linecap: square"/>
    <g>
     <use xlink:href="#mcd4de3a290" x="383.258437" y="69.128281" style="fill: #d62728; stroke: #d62728"/>
    </g>
   </g>
   <g id="text_16">
    <text style="font-size: 11px; font-family: 'DejaVu Sans'; text-anchor: start" x="403.058437" y="72.978281" transform="rotate(-0 403.058437 72.978281)">threads</text>
   </g>
   <g id="line2d_24">
    <path d="M 466.839531 69.128281 
L 477.839531 69.128281 
L 488.839531 69.128281 
" style="fill: none; stroke: #2ca02c; stroke-width: 2.2; stroke-linecap: square"/>
    <g>
     <use xlink:href="#m7337fd7243" x="477.839531" y="69.128281" style="fill: #2ca02c; stroke: #2ca02c"/>
    </g>
   </g>
   <g id="text_17">
    <text style="font-size: 11px; font-family: 'DejaVu Sans'; text-anchor: start" x="497.639531" y="72.978281" transform="rotate(-0 497.639531 72.978281)">executor</text>
   </g>
  </g>
 </g>
 <defs>
  <clipPath id="p6d8d43703b">
   <rect x="45.716875" y="121.248" width="897.12" height="335.808"/>
  </clipPath>
 </defs>
</svg>
